<svg width="720" height="340" viewBox="0 0 720 340" xmlns="http://www.w3.org/2000/svg" font-family="system-ui, -apple-system, sans-serif">
  <rect x="0" y="0" width="720" height="340" rx="12" fill="#0d0e10" stroke="#22323a"/>

  <!-- left labels -->
  <text x="24" y="58" font-size="12" fill="#8fb2bd">buf[0..7]</text>
  <text x="24" y="88" font-size="14" fill="#9fdcec">s = 4</text>
  <text x="24" y="105" font-size="11.5" fill="#8fb2bd">buf[tid] += buf[tid+4]</text>
  <text x="24" y="164" font-size="14" fill="#9fdcec">s = 2</text>
  <text x="24" y="181" font-size="11.5" fill="#8fb2bd">buf[tid] += buf[tid+2]</text>
  <text x="24" y="240" font-size="14" fill="#9fdcec">s = 1</text>
  <text x="24" y="257" font-size="11.5" fill="#8fb2bd">buf[tid] += buf[tid+1]</text>

  <!-- level 0: y 36..66 -->
  <g font-size="14" text-anchor="middle">
    <rect x="190" y="36" width="48" height="30" rx="5" fill="#2b1229" stroke="#e46fd6" stroke-width="1.4"/><text x="214" y="56" fill="#9fdcec">3</text>
    <rect x="252" y="36" width="48" height="30" rx="5" fill="#2b1229" stroke="#e46fd6" stroke-width="1.4"/><text x="276" y="56" fill="#9fdcec">1</text>
    <rect x="314" y="36" width="48" height="30" rx="5" fill="#2b1229" stroke="#e46fd6" stroke-width="1.4"/><text x="338" y="56" fill="#9fdcec">4</text>
    <rect x="376" y="36" width="48" height="30" rx="5" fill="#2b1229" stroke="#e46fd6" stroke-width="1.4"/><text x="400" y="56" fill="#9fdcec">1</text>
    <rect x="438" y="36" width="48" height="30" rx="5" fill="#0f1319" stroke="#3f7f90"/><text x="462" y="56" fill="#8fb2bd">5</text>
    <rect x="500" y="36" width="48" height="30" rx="5" fill="#0f1319" stroke="#3f7f90"/><text x="524" y="56" fill="#8fb2bd">9</text>
    <rect x="562" y="36" width="48" height="30" rx="5" fill="#0f1319" stroke="#3f7f90"/><text x="586" y="56" fill="#8fb2bd">2</text>
    <rect x="624" y="36" width="48" height="30" rx="5" fill="#0f1319" stroke="#3f7f90"/><text x="648" y="56" fill="#8fb2bd">6</text>
  </g>

  <!-- s=4: verticals + parallel diagonals -->
  <g stroke="#3f7f90" stroke-width="1.2">
    <line x1="214" y1="66" x2="214" y2="112"/>
    <line x1="276" y1="66" x2="276" y2="112"/>
    <line x1="338" y1="66" x2="338" y2="112"/>
    <line x1="400" y1="66" x2="400" y2="112"/>
    <line x1="462" y1="66" x2="214" y2="112"/>
    <line x1="524" y1="66" x2="276" y2="112"/>
    <line x1="586" y1="66" x2="338" y2="112"/>
    <line x1="648" y1="66" x2="400" y2="112"/>
  </g>

  <!-- level 1: y 112..142 -->
  <g font-size="14" text-anchor="middle">
    <rect x="190" y="112" width="48" height="30" rx="5" fill="#2b1229" stroke="#e46fd6" stroke-width="1.4"/><text x="214" y="132" fill="#9fdcec">8</text>
    <rect x="252" y="112" width="48" height="30" rx="5" fill="#2b1229" stroke="#e46fd6" stroke-width="1.4"/><text x="276" y="132" fill="#9fdcec">10</text>
    <rect x="314" y="112" width="48" height="30" rx="5" fill="#0f1319" stroke="#3f7f90"/><text x="338" y="132" fill="#8fb2bd">6</text>
    <rect x="376" y="112" width="48" height="30" rx="5" fill="#0f1319" stroke="#3f7f90"/><text x="400" y="132" fill="#8fb2bd">7</text>
  </g>

  <!-- s=2 -->
  <g stroke="#3f7f90" stroke-width="1.2">
    <line x1="214" y1="142" x2="214" y2="188"/>
    <line x1="276" y1="142" x2="276" y2="188"/>
    <line x1="338" y1="142" x2="214" y2="188"/>
    <line x1="400" y1="142" x2="276" y2="188"/>
  </g>

  <!-- level 2: y 188..218 -->
  <g font-size="14" text-anchor="middle">
    <rect x="190" y="188" width="48" height="30" rx="5" fill="#2b1229" stroke="#e46fd6" stroke-width="1.4"/><text x="214" y="208" fill="#9fdcec">14</text>
    <rect x="252" y="188" width="48" height="30" rx="5" fill="#0f1319" stroke="#3f7f90"/><text x="276" y="208" fill="#8fb2bd">17</text>
  </g>

  <!-- s=1 -->
  <g stroke="#3f7f90" stroke-width="1.2">
    <line x1="214" y1="218" x2="214" y2="264"/>
    <line x1="276" y1="218" x2="214" y2="264"/>
  </g>

  <!-- level 3: y 264..294 -->
  <rect x="190" y="264" width="48" height="30" rx="5" fill="#e46fd6"/><text x="214" y="284" font-size="14" fill="#0d0e10" font-weight="700" text-anchor="middle">31</text>

  <text x="360" y="324" font-size="12.5" fill="#8fb2bd" text-anchor="middle">N = 8 · reduction depth = log₂8 = 3 stages · magenta cells mark the active destination lanes</text>
</svg>
