<svg viewBox="0 0 422 496" xmlns="http://www.w3.org/2000/svg" role="img">
<title>Kepler SMX component diagram, GK110 2012</title>
<style>
text{font-family:'Roboto','Noto Sans KR',-apple-system,BlinkMacSystemFont,sans-serif}
.plateTitle{font-size:22px;font-weight:800;fill:#e6f6fb}.meta{font-size:13px;fill:#86a6b1}
.label{font-size:14px;font-weight:700;fill:#0d0e10}.darkLabel{font-size:13px;font-weight:700;fill:#d9f1f7}
.small{font-size:12px;fill:#d9f1f7}.tiny{font-size:10px;fill:#d9f1f7}.note{font-size:12px;fill:#8aaab4}
.outline{fill:#0d0e10;stroke:#33c0e4;stroke-width:2}.ic{fill:#75b7dc;stroke:#0d0e10;stroke-width:1.2}
.sched{fill:#ffa25a;stroke:#0d0e10;stroke-width:1.2}.reg{fill:#75b7dc;stroke:#0d0e10;stroke-width:1.2}
.core{fill:#2dcc35;stroke:#0d0e10;stroke-width:1}.ldst{fill:#b7db75;stroke:#0d0e10;stroke-width:1}
.sfu{fill:#8fd06b;stroke:#0d0e10;stroke-width:1}.tensor{fill:#e46fd6;stroke:#0d0e10;stroke-width:1.2}
.rt{fill:#ffe14f;stroke:#0d0e10;stroke-width:1.2}.tex{fill:#4d68b7;stroke:#0d0e10;stroke-width:1.2}
.mem{fill:#75b7dc;stroke:#0d0e10;stroke-width:1.2}.hot{fill:#e46fd6;stroke:#0d0e10;stroke-width:1.2}
.fabric{fill:#a9c0d5;stroke:#0d0e10;stroke-width:1.2}.arrow{fill:#a9b0b4}
</style>
<defs>
<filter id="glow" x="-20%" y="-20%" width="140%" height="140%"><feGaussianBlur stdDeviation="1.6" result="b"/><feMerge><feMergeNode in="b"/><feMergeNode in="SourceGraphic"/></feMerge></filter>
<pattern id="dots" width="8" height="8" patternUnits="userSpaceOnUse"><circle cx="1.5" cy="1.5" r="0.8" fill="#1b2a30"/></pattern>
</defs>
<rect width="422" height="496" fill="#0d0e10"/><rect width="422" height="496" fill="url(#dots)" opacity="0.32"/>
  <g transform="translate(20 20)" filter="url(#glow)">
    <rect width="382" height="456" rx="12" class="outline"/>
    <text x="22" y="34" class="plateTitle">Kepler SMX</text><text x="154" y="34" class="meta">GK110 · 2012</text>
    <rect x="22" y="58" width="338" height="28" class="ic"/><text x="191" y="77" text-anchor="middle" class="label">Instruction cache</text>
    <g transform="translate(22 100)">
      <rect width="74" height="30" class="sched"/><rect x="88" width="74" height="30" class="sched"/><rect x="176" width="74" height="30" class="sched"/><rect x="264" width="74" height="30" class="sched"/>
      <text x="37" y="20" text-anchor="middle" class="tiny" fill="#0d0e10">sched</text><text x="125" y="20" text-anchor="middle" class="tiny" fill="#0d0e10">sched</text><text x="213" y="20" text-anchor="middle" class="tiny" fill="#0d0e10">sched</text><text x="301" y="20" text-anchor="middle" class="tiny" fill="#0d0e10">sched</text>
    </g>
    <rect x="22" y="146" width="338" height="50" class="reg"/><text x="191" y="176" text-anchor="middle" class="label">Large register file · 256 KB</text>
    <g transform="translate(22 218)">
      <rect width="196" height="122" fill="none" stroke="#33c0e4"/>
      <text x="98" y="-8" text-anchor="middle" class="small">192 CUDA cores</text>
      <rect x="0" y="0" width="49" height="30" class="core"/><rect x="49" y="0" width="49" height="30" class="core"/><rect x="98" y="0" width="49" height="30" class="core"/><rect x="147" y="0" width="49" height="30" class="core"/>
      <rect x="0" y="30" width="49" height="30" class="core"/><rect x="49" y="30" width="49" height="30" class="core"/><rect x="98" y="30" width="49" height="30" class="core"/><rect x="147" y="30" width="49" height="30" class="core"/>
      <rect x="0" y="60" width="49" height="30" class="core"/><rect x="49" y="60" width="49" height="30" class="core"/><rect x="98" y="60" width="49" height="30" class="core"/><rect x="147" y="60" width="49" height="30" class="core"/>
      <rect x="0" y="90" width="49" height="32" class="core"/><rect x="49" y="90" width="49" height="32" class="core"/><rect x="98" y="90" width="49" height="32" class="core"/><rect x="147" y="90" width="49" height="32" class="core"/>
      <text x="98" y="68" text-anchor="middle" class="label">wide core array</text>
    </g>
    <g transform="translate(238 218)">
      <rect width="48" height="26" class="ldst"/><text x="24" y="18" text-anchor="middle" class="tiny">LD/ST</text>
      <rect y="32" width="48" height="26" class="ldst"/><text x="24" y="50" text-anchor="middle" class="tiny">LD/ST</text>
      <rect y="64" width="48" height="26" class="ldst"/><text x="24" y="82" text-anchor="middle" class="tiny">LD/ST</text>
      <rect y="96" width="48" height="26" class="ldst"/><text x="24" y="114" text-anchor="middle" class="tiny">LD/ST</text>
      <rect x="66" width="56" height="122" class="sfu"/><text x="94" y="67" text-anchor="middle" class="label">32 SFU</text>
    </g>
    <rect x="22" y="366" width="338" height="30" class="hot"/><text x="191" y="386" text-anchor="middle" class="label">compiler-scheduled instruction issue</text>
    <rect x="22" y="408" width="338" height="28" class="mem"/><text x="191" y="427" text-anchor="middle" class="label">shared memory / L1 / texture path</text>
  </g>

</svg>
